<mxfile host="Electron" agent="Mozilla/5.0 (Windows NT 10.0; Win64; x64) AppleWebKit/537.36 (KHTML, like Gecko) draw.io/28.1.2 Chrome/138.0.7204.243 Electron/37.4.0 Safari/537.36" version="28.1.2">
  <diagram id="rwJtL-r9LXmEdRRuKoTJ" name="ページ1">
    <mxGraphModel dx="2050" dy="2201" grid="1" gridSize="10" guides="1" tooltips="1" connect="1" arrows="1" fold="1" page="1" pageScale="1" pageWidth="827" pageHeight="1169" math="0" shadow="0">
      <root>
        <mxCell id="0" />
        <mxCell id="1" parent="0" />
        <mxCell id="wmisGIE3uygCkkXU4CRx-2" value="事務職員" style="shape=umlActor;verticalLabelPosition=bottom;verticalAlign=top;html=1;" parent="1" vertex="1">
          <mxGeometry x="100" y="-310" width="30" height="60" as="geometry" />
        </mxCell>
        <mxCell id="wmisGIE3uygCkkXU4CRx-5" value="&lt;b&gt;図書予約画面&lt;/b&gt;" style="shape=umlBoundary;whiteSpace=wrap;html=1;fillColor=#D5E8D4;" parent="1" vertex="1">
          <mxGeometry x="260" y="-320" width="100" height="80" as="geometry" />
        </mxCell>
        <mxCell id="wmisGIE3uygCkkXU4CRx-8" style="edgeStyle=none;rounded=0;orthogonalLoop=1;jettySize=auto;html=1;entryX=-0.017;entryY=0.517;entryDx=0;entryDy=0;entryPerimeter=0;" parent="1" source="wmisGIE3uygCkkXU4CRx-2" target="wmisGIE3uygCkkXU4CRx-5" edge="1">
          <mxGeometry relative="1" as="geometry" />
        </mxCell>
        <mxCell id="wmisGIE3uygCkkXU4CRx-9" value="予約メニューを押す" style="edgeLabel;html=1;align=center;verticalAlign=middle;resizable=0;points=[];" parent="wmisGIE3uygCkkXU4CRx-8" vertex="1" connectable="0">
          <mxGeometry x="-0.0332" y="2" relative="1" as="geometry">
            <mxPoint x="3" y="-13" as="offset" />
          </mxGeometry>
        </mxCell>
        <mxCell id="wmisGIE3uygCkkXU4CRx-10" value="&lt;div&gt;&lt;span style=&quot;background-color: transparent; color: light-dark(rgb(0, 0, 0), rgb(255, 255, 255));&quot;&gt;会員の氏名&lt;/span&gt;&lt;/div&gt;&lt;div&gt;会員種別を&lt;/div&gt;&lt;div&gt;表示&lt;/div&gt;" style="ellipse;shape=umlControl;whiteSpace=wrap;html=1;fillColor=#F8CECC;" parent="1" vertex="1">
          <mxGeometry x="520" y="-200" width="80" height="90" as="geometry" />
        </mxCell>
        <mxCell id="wmisGIE3uygCkkXU4CRx-11" style="edgeStyle=none;rounded=0;orthogonalLoop=1;jettySize=auto;html=1;entryX=0.041;entryY=0.398;entryDx=0;entryDy=0;exitX=0.996;exitY=0.496;exitDx=0;exitDy=0;exitPerimeter=0;entryPerimeter=0;" parent="1" source="wmisGIE3uygCkkXU4CRx-21" target="wmisGIE3uygCkkXU4CRx-13" edge="1">
          <mxGeometry relative="1" as="geometry">
            <mxPoint x="440" y="120" as="sourcePoint" />
            <mxPoint x="500" y="119.5" as="targetPoint" />
          </mxGeometry>
        </mxCell>
        <mxCell id="wmisGIE3uygCkkXU4CRx-12" value="確認" style="edgeLabel;html=1;align=center;verticalAlign=middle;resizable=0;points=[];" parent="wmisGIE3uygCkkXU4CRx-11" vertex="1" connectable="0">
          <mxGeometry x="-0.3112" y="-1" relative="1" as="geometry">
            <mxPoint x="10" y="-11" as="offset" />
          </mxGeometry>
        </mxCell>
        <mxCell id="wmisGIE3uygCkkXU4CRx-17" style="edgeStyle=none;rounded=0;orthogonalLoop=1;jettySize=auto;html=1;" parent="1" target="wmisGIE3uygCkkXU4CRx-20" edge="1">
          <mxGeometry relative="1" as="geometry">
            <mxPoint x="640" y="270" as="targetPoint" />
            <mxPoint x="530" y="-250" as="sourcePoint" />
          </mxGeometry>
        </mxCell>
        <mxCell id="wmisGIE3uygCkkXU4CRx-19" value="未登録or&lt;div&gt;未入力&lt;/div&gt;" style="edgeLabel;html=1;align=center;verticalAlign=middle;resizable=0;points=[];" parent="wmisGIE3uygCkkXU4CRx-17" vertex="1" connectable="0">
          <mxGeometry x="-0.2311" y="1" relative="1" as="geometry">
            <mxPoint x="-9" y="22" as="offset" />
          </mxGeometry>
        </mxCell>
        <mxCell id="wmisGIE3uygCkkXU4CRx-13" value="&lt;b&gt;会員情報&lt;/b&gt;" style="ellipse;shape=umlEntity;whiteSpace=wrap;html=1;fillColor=#D4E1F5;" parent="1" vertex="1">
          <mxGeometry x="710" y="-320" width="80" height="80" as="geometry" />
        </mxCell>
        <mxCell id="wmisGIE3uygCkkXU4CRx-15" style="edgeStyle=none;rounded=0;orthogonalLoop=1;jettySize=auto;html=1;entryX=0.543;entryY=0;entryDx=0;entryDy=0;entryPerimeter=0;exitX=0.543;exitY=1.022;exitDx=0;exitDy=0;exitPerimeter=0;" parent="1" source="wmisGIE3uygCkkXU4CRx-21" target="wmisGIE3uygCkkXU4CRx-10" edge="1">
          <mxGeometry relative="1" as="geometry" />
        </mxCell>
        <mxCell id="wmisGIE3uygCkkXU4CRx-18" value="&lt;span style=&quot;font-size: 12px; background-color: rgb(236, 236, 236);&quot;&gt;登録済み&lt;/span&gt;" style="edgeLabel;html=1;align=center;verticalAlign=middle;resizable=0;points=[];" parent="wmisGIE3uygCkkXU4CRx-15" vertex="1" connectable="0">
          <mxGeometry x="-0.0153" y="-2" relative="1" as="geometry">
            <mxPoint x="10" y="-6" as="offset" />
          </mxGeometry>
        </mxCell>
        <mxCell id="wmisGIE3uygCkkXU4CRx-20" value="「会員番号を&lt;div&gt;確認してください」と表示&lt;/div&gt;" style="ellipse;shape=umlControl;whiteSpace=wrap;html=1;fillColor=#F8CECC;" parent="1" vertex="1">
          <mxGeometry x="390" y="-230" width="80" height="90" as="geometry" />
        </mxCell>
        <mxCell id="wmisGIE3uygCkkXU4CRx-21" value="&lt;b&gt;会員確認&lt;/b&gt;" style="ellipse;shape=umlControl;whiteSpace=wrap;html=1;fillColor=#F8CECC;" parent="1" vertex="1">
          <mxGeometry x="520" y="-330" width="80" height="90" as="geometry" />
        </mxCell>
        <mxCell id="wmisGIE3uygCkkXU4CRx-22" style="edgeStyle=none;rounded=0;orthogonalLoop=1;jettySize=auto;html=1;exitX=1.022;exitY=0.457;exitDx=0;exitDy=0;exitPerimeter=0;entryX=0.013;entryY=0.517;entryDx=0;entryDy=0;entryPerimeter=0;" parent="1" source="wmisGIE3uygCkkXU4CRx-5" target="wmisGIE3uygCkkXU4CRx-21" edge="1">
          <mxGeometry relative="1" as="geometry">
            <mxPoint x="260" y="180" as="sourcePoint" />
            <mxPoint x="370" y="118" as="targetPoint" />
            <Array as="points" />
          </mxGeometry>
        </mxCell>
        <mxCell id="wmisGIE3uygCkkXU4CRx-23" value="会員番号を入力" style="edgeLabel;html=1;align=center;verticalAlign=middle;resizable=0;points=[];" parent="wmisGIE3uygCkkXU4CRx-22" vertex="1" connectable="0">
          <mxGeometry x="-0.3112" y="-1" relative="1" as="geometry">
            <mxPoint x="-10" y="-11" as="offset" />
          </mxGeometry>
        </mxCell>
        <mxCell id="wmisGIE3uygCkkXU4CRx-24" value="&lt;b&gt;予約完了画面&lt;/b&gt;" style="shape=umlBoundary;whiteSpace=wrap;html=1;fillColor=#D5E8D4;" parent="1" vertex="1">
          <mxGeometry x="260" y="230" width="100" height="80" as="geometry" />
        </mxCell>
        <mxCell id="wmisGIE3uygCkkXU4CRx-25" value="&lt;b&gt;予約情報&lt;/b&gt;" style="ellipse;shape=umlEntity;whiteSpace=wrap;html=1;fillColor=#D4E1F5;" parent="1" vertex="1">
          <mxGeometry x="710" y="230" width="80" height="80" as="geometry" />
        </mxCell>
        <mxCell id="wmisGIE3uygCkkXU4CRx-33" style="edgeStyle=none;rounded=0;orthogonalLoop=1;jettySize=auto;html=1;entryX=0;entryY=0.5;entryDx=0;entryDy=0;exitX=1.033;exitY=0.559;exitDx=0;exitDy=0;exitPerimeter=0;" parent="1" source="wmisGIE3uygCkkXU4CRx-26" target="wmisGIE3uygCkkXU4CRx-28" edge="1">
          <mxGeometry relative="1" as="geometry">
            <mxPoint x="600" y="-35" as="sourcePoint" />
          </mxGeometry>
        </mxCell>
        <mxCell id="wmisGIE3uygCkkXU4CRx-34" value="確認" style="edgeLabel;html=1;align=center;verticalAlign=middle;resizable=0;points=[];" parent="wmisGIE3uygCkkXU4CRx-33" vertex="1" connectable="0">
          <mxGeometry x="-0.2076" y="1" relative="1" as="geometry">
            <mxPoint x="13" y="-14" as="offset" />
          </mxGeometry>
        </mxCell>
        <mxCell id="wmisGIE3uygCkkXU4CRx-43" style="edgeStyle=none;rounded=0;orthogonalLoop=1;jettySize=auto;html=1;entryX=1.033;entryY=0.481;entryDx=0;entryDy=0;entryPerimeter=0;" parent="1" source="wmisGIE3uygCkkXU4CRx-26" target="wmisGIE3uygCkkXU4CRx-42" edge="1">
          <mxGeometry relative="1" as="geometry" />
        </mxCell>
        <mxCell id="wmisGIE3uygCkkXU4CRx-44" value="未入力" style="edgeLabel;html=1;align=center;verticalAlign=middle;resizable=0;points=[];" parent="wmisGIE3uygCkkXU4CRx-43" vertex="1" connectable="0">
          <mxGeometry x="-0.27" y="-3" relative="1" as="geometry">
            <mxPoint x="-5" y="9" as="offset" />
          </mxGeometry>
        </mxCell>
        <mxCell id="wmisGIE3uygCkkXU4CRx-26" value="&lt;b&gt;図書確認&lt;/b&gt;" style="ellipse;shape=umlControl;whiteSpace=wrap;html=1;fillColor=#F8CECC;" parent="1" vertex="1">
          <mxGeometry x="520" y="-70" width="80" height="90" as="geometry" />
        </mxCell>
        <mxCell id="wmisGIE3uygCkkXU4CRx-62" style="edgeStyle=none;rounded=0;orthogonalLoop=1;jettySize=auto;html=1;exitX=0.054;exitY=0.356;exitDx=0;exitDy=0;exitPerimeter=0;" parent="1" source="wmisGIE3uygCkkXU4CRx-27" target="wmisGIE3uygCkkXU4CRx-60" edge="1">
          <mxGeometry relative="1" as="geometry">
            <Array as="points">
              <mxPoint x="430" y="190" />
            </Array>
          </mxGeometry>
        </mxCell>
        <mxCell id="wmisGIE3uygCkkXU4CRx-27" value="&lt;b&gt;予約保存&lt;/b&gt;" style="ellipse;shape=umlControl;whiteSpace=wrap;html=1;fillColor=#F8CECC;" parent="1" vertex="1">
          <mxGeometry x="520" y="220" width="80" height="90" as="geometry" />
        </mxCell>
        <mxCell id="wmisGIE3uygCkkXU4CRx-28" value="&lt;b&gt;図書情報&lt;/b&gt;" style="ellipse;shape=umlEntity;whiteSpace=wrap;html=1;fillColor=#D4E1F5;" parent="1" vertex="1">
          <mxGeometry x="710" y="-60" width="80" height="80" as="geometry" />
        </mxCell>
        <mxCell id="wmisGIE3uygCkkXU4CRx-29" style="edgeStyle=none;rounded=0;orthogonalLoop=1;jettySize=auto;html=1;" parent="1" source="wmisGIE3uygCkkXU4CRx-10" target="wmisGIE3uygCkkXU4CRx-26" edge="1">
          <mxGeometry relative="1" as="geometry" />
        </mxCell>
        <mxCell id="wmisGIE3uygCkkXU4CRx-73" value="書名を入力" style="edgeLabel;html=1;align=center;verticalAlign=middle;resizable=0;points=[];" parent="wmisGIE3uygCkkXU4CRx-29" vertex="1" connectable="0">
          <mxGeometry x="-0.0452" y="-2" relative="1" as="geometry">
            <mxPoint as="offset" />
          </mxGeometry>
        </mxCell>
        <mxCell id="wmisGIE3uygCkkXU4CRx-30" style="edgeStyle=none;rounded=0;orthogonalLoop=1;jettySize=auto;html=1;exitX=0.089;exitY=0.33;exitDx=0;exitDy=0;exitPerimeter=0;entryX=0.854;entryY=0.878;entryDx=0;entryDy=0;entryPerimeter=0;" parent="1" source="wmisGIE3uygCkkXU4CRx-20" target="wmisGIE3uygCkkXU4CRx-5" edge="1">
          <mxGeometry relative="1" as="geometry">
            <mxPoint x="370" y="-155" as="sourcePoint" />
          </mxGeometry>
        </mxCell>
        <mxCell id="wmisGIE3uygCkkXU4CRx-35" style="edgeStyle=none;rounded=0;orthogonalLoop=1;jettySize=auto;html=1;entryX=0;entryY=0.5;entryDx=0;entryDy=0;exitX=1.036;exitY=0.57;exitDx=0;exitDy=0;exitPerimeter=0;" parent="1" source="wmisGIE3uygCkkXU4CRx-27" target="wmisGIE3uygCkkXU4CRx-25" edge="1">
          <mxGeometry relative="1" as="geometry">
            <mxPoint x="600" y="320" as="sourcePoint" />
            <mxPoint x="516" y="310" as="targetPoint" />
          </mxGeometry>
        </mxCell>
        <mxCell id="wmisGIE3uygCkkXU4CRx-64" value="予約情報の保存" style="edgeLabel;html=1;align=center;verticalAlign=middle;resizable=0;points=[];" parent="wmisGIE3uygCkkXU4CRx-35" vertex="1" connectable="0">
          <mxGeometry x="-0.0371" y="1" relative="1" as="geometry">
            <mxPoint x="5" y="-10" as="offset" />
          </mxGeometry>
        </mxCell>
        <mxCell id="wmisGIE3uygCkkXU4CRx-46" style="edgeStyle=none;rounded=0;orthogonalLoop=1;jettySize=auto;html=1;exitX=0.483;exitY=0.99;exitDx=0;exitDy=0;exitPerimeter=0;" parent="1" source="wmisGIE3uygCkkXU4CRx-37" target="wmisGIE3uygCkkXU4CRx-27" edge="1">
          <mxGeometry relative="1" as="geometry">
            <mxPoint x="280" y="135" as="targetPoint" />
            <Array as="points" />
          </mxGeometry>
        </mxCell>
        <mxCell id="wmisGIE3uygCkkXU4CRx-74" value="図書の予約を押す" style="edgeLabel;html=1;align=center;verticalAlign=middle;resizable=0;points=[];" parent="wmisGIE3uygCkkXU4CRx-46" vertex="1" connectable="0">
          <mxGeometry x="-0.2238" y="3" relative="1" as="geometry">
            <mxPoint x="-2" y="1" as="offset" />
          </mxGeometry>
        </mxCell>
        <mxCell id="wmisGIE3uygCkkXU4CRx-37" value="図書一覧&lt;div&gt;を表示&lt;/div&gt;" style="ellipse;shape=umlControl;whiteSpace=wrap;html=1;fillColor=#F8CECC;" parent="1" vertex="1">
          <mxGeometry x="520" y="50" width="80" height="90" as="geometry" />
        </mxCell>
        <mxCell id="wmisGIE3uygCkkXU4CRx-39" style="edgeStyle=none;rounded=0;orthogonalLoop=1;jettySize=auto;html=1;exitX=0.508;exitY=0.972;exitDx=0;exitDy=0;exitPerimeter=0;" parent="1" source="wmisGIE3uygCkkXU4CRx-26" target="wmisGIE3uygCkkXU4CRx-37" edge="1">
          <mxGeometry relative="1" as="geometry">
            <mxPoint x="430" y="220" as="sourcePoint" />
          </mxGeometry>
        </mxCell>
        <mxCell id="wmisGIE3uygCkkXU4CRx-54" value="該当する" style="edgeLabel;html=1;align=center;verticalAlign=middle;resizable=0;points=[];" parent="wmisGIE3uygCkkXU4CRx-39" vertex="1" connectable="0">
          <mxGeometry x="0.3259" y="3" relative="1" as="geometry">
            <mxPoint as="offset" />
          </mxGeometry>
        </mxCell>
        <mxCell id="wmisGIE3uygCkkXU4CRx-42" value="「書名を入力してください」&lt;div&gt;と表示&lt;/div&gt;" style="ellipse;shape=umlControl;whiteSpace=wrap;html=1;fillColor=#F8CECC;" parent="1" vertex="1">
          <mxGeometry x="390" y="-70" width="80" height="90" as="geometry" />
        </mxCell>
        <mxCell id="wmisGIE3uygCkkXU4CRx-47" value="" style="endArrow=block;dashed=1;endFill=0;endSize=12;html=1;rounded=0;exitX=-0.032;exitY=0.626;exitDx=0;exitDy=0;entryX=0.96;entryY=0.693;entryDx=0;entryDy=0;entryPerimeter=0;exitPerimeter=0;" parent="1" source="wmisGIE3uygCkkXU4CRx-13" target="wmisGIE3uygCkkXU4CRx-21" edge="1">
          <mxGeometry width="160" relative="1" as="geometry">
            <mxPoint x="420" y="39.33" as="sourcePoint" />
            <mxPoint x="470" y="-150" as="targetPoint" />
          </mxGeometry>
        </mxCell>
        <mxCell id="wmisGIE3uygCkkXU4CRx-50" value="「該当する図書が見つかりませんと表示」" style="ellipse;shape=umlControl;whiteSpace=wrap;html=1;fillColor=#F8CECC;" parent="1" vertex="1">
          <mxGeometry x="650" y="-200" width="80" height="90" as="geometry" />
        </mxCell>
        <mxCell id="wmisGIE3uygCkkXU4CRx-52" style="edgeStyle=none;rounded=0;orthogonalLoop=1;jettySize=auto;html=1;exitX=0.843;exitY=0.208;exitDx=0;exitDy=0;exitPerimeter=0;entryX=0.179;entryY=0.903;entryDx=0;entryDy=0;entryPerimeter=0;" parent="1" source="wmisGIE3uygCkkXU4CRx-26" target="wmisGIE3uygCkkXU4CRx-50" edge="1">
          <mxGeometry relative="1" as="geometry">
            <mxPoint x="710" y="-110" as="targetPoint" />
          </mxGeometry>
        </mxCell>
        <mxCell id="wmisGIE3uygCkkXU4CRx-53" value="該当しない" style="edgeLabel;html=1;align=center;verticalAlign=middle;resizable=0;points=[];" parent="wmisGIE3uygCkkXU4CRx-52" vertex="1" connectable="0">
          <mxGeometry x="0.1621" y="1" relative="1" as="geometry">
            <mxPoint x="10" y="4" as="offset" />
          </mxGeometry>
        </mxCell>
        <mxCell id="wmisGIE3uygCkkXU4CRx-56" value="" style="endArrow=block;dashed=1;endFill=0;endSize=12;html=1;rounded=0;exitX=0.069;exitY=0.717;exitDx=0;exitDy=0;exitPerimeter=0;entryX=1;entryY=0.778;entryDx=0;entryDy=0;entryPerimeter=0;" parent="1" source="wmisGIE3uygCkkXU4CRx-25" target="wmisGIE3uygCkkXU4CRx-27" edge="1">
          <mxGeometry width="160" relative="1" as="geometry">
            <mxPoint x="577" y="530" as="sourcePoint" />
            <mxPoint x="600" y="337" as="targetPoint" />
          </mxGeometry>
        </mxCell>
        <mxCell id="wmisGIE3uygCkkXU4CRx-84" style="edgeStyle=none;rounded=0;orthogonalLoop=1;jettySize=auto;html=1;entryX=0;entryY=0.778;entryDx=0;entryDy=0;entryPerimeter=0;" parent="1" source="wmisGIE3uygCkkXU4CRx-59" target="wmisGIE3uygCkkXU4CRx-10" edge="1">
          <mxGeometry relative="1" as="geometry">
            <mxPoint x="380" y="-110" as="targetPoint" />
            <Array as="points">
              <mxPoint x="370" y="20" />
              <mxPoint x="370" y="-50" />
            </Array>
          </mxGeometry>
        </mxCell>
        <mxCell id="wmisGIE3uygCkkXU4CRx-59" value="「学生は雑誌を予約できません」を表示" style="ellipse;shape=umlControl;whiteSpace=wrap;html=1;fillColor=#F8CECC;" parent="1" vertex="1">
          <mxGeometry x="390" y="40" width="80" height="90" as="geometry" />
        </mxCell>
        <mxCell id="wmisGIE3uygCkkXU4CRx-86" style="edgeStyle=none;rounded=0;orthogonalLoop=1;jettySize=auto;html=1;entryX=0;entryY=0.554;entryDx=0;entryDy=0;entryPerimeter=0;" parent="1" source="wmisGIE3uygCkkXU4CRx-60" target="wmisGIE3uygCkkXU4CRx-10" edge="1">
          <mxGeometry relative="1" as="geometry">
            <mxPoint x="380" y="-120" as="targetPoint" />
            <Array as="points">
              <mxPoint x="330" y="-60" />
            </Array>
          </mxGeometry>
        </mxCell>
        <mxCell id="wmisGIE3uygCkkXU4CRx-60" value="「在庫があります」と表示" style="ellipse;shape=umlControl;whiteSpace=wrap;html=1;fillColor=#F8CECC;" parent="1" vertex="1">
          <mxGeometry x="290" y="40" width="80" height="90" as="geometry" />
        </mxCell>
        <mxCell id="wmisGIE3uygCkkXU4CRx-61" style="edgeStyle=none;rounded=0;orthogonalLoop=1;jettySize=auto;html=1;entryX=0.902;entryY=0.868;entryDx=0;entryDy=0;entryPerimeter=0;exitX=0.221;exitY=0.18;exitDx=0;exitDy=0;exitPerimeter=0;" parent="1" source="wmisGIE3uygCkkXU4CRx-27" target="wmisGIE3uygCkkXU4CRx-59" edge="1">
          <mxGeometry relative="1" as="geometry" />
        </mxCell>
        <mxCell id="wmisGIE3uygCkkXU4CRx-70" style="edgeStyle=none;rounded=0;orthogonalLoop=1;jettySize=auto;html=1;entryX=0.998;entryY=0.499;entryDx=0;entryDy=0;entryPerimeter=0;exitX=-0.003;exitY=0.567;exitDx=0;exitDy=0;exitPerimeter=0;" parent="1" source="wmisGIE3uygCkkXU4CRx-27" target="wmisGIE3uygCkkXU4CRx-24" edge="1">
          <mxGeometry relative="1" as="geometry">
            <mxPoint x="510" y="245" as="sourcePoint" />
            <Array as="points" />
          </mxGeometry>
        </mxCell>
        <mxCell id="wmisGIE3uygCkkXU4CRx-71" value="保存が確認できた" style="edgeLabel;html=1;align=center;verticalAlign=middle;resizable=0;points=[];rotation=0;" parent="wmisGIE3uygCkkXU4CRx-70" vertex="1" connectable="0">
          <mxGeometry x="-0.0479" y="-2" relative="1" as="geometry">
            <mxPoint x="-17" y="12" as="offset" />
          </mxGeometry>
        </mxCell>
        <mxCell id="wmisGIE3uygCkkXU4CRx-75" value="&lt;span style=&quot;font-size: 11px; background-color: rgb(255, 255, 255);&quot;&gt;未貸し出しの本がある&lt;/span&gt;" style="text;html=1;align=center;verticalAlign=middle;resizable=0;points=[];autosize=1;strokeColor=none;fillColor=none;" parent="1" vertex="1">
          <mxGeometry x="360" y="200" width="130" height="30" as="geometry" />
        </mxCell>
        <mxCell id="wmisGIE3uygCkkXU4CRx-77" value="&lt;span style=&quot;font-size: 11px; background-color: rgb(255, 255, 255);&quot;&gt;学生が雑誌を予約&lt;/span&gt;" style="text;html=1;align=center;verticalAlign=middle;resizable=0;points=[];autosize=1;strokeColor=none;fillColor=none;" parent="1" vertex="1">
          <mxGeometry x="430" y="170" width="110" height="30" as="geometry" />
        </mxCell>
        <mxCell id="wmisGIE3uygCkkXU4CRx-79" style="edgeStyle=none;rounded=0;orthogonalLoop=1;jettySize=auto;html=1;entryX=0.125;entryY=0.889;entryDx=0;entryDy=0;entryPerimeter=0;exitX=0.82;exitY=0.214;exitDx=0;exitDy=0;exitPerimeter=0;" parent="1" source="wmisGIE3uygCkkXU4CRx-42" target="wmisGIE3uygCkkXU4CRx-10" edge="1">
          <mxGeometry relative="1" as="geometry" />
        </mxCell>
        <mxCell id="wmisGIE3uygCkkXU4CRx-80" style="edgeStyle=none;rounded=0;orthogonalLoop=1;jettySize=auto;html=1;entryX=1.024;entryY=0.509;entryDx=0;entryDy=0;entryPerimeter=0;" parent="1" source="wmisGIE3uygCkkXU4CRx-50" target="wmisGIE3uygCkkXU4CRx-10" edge="1">
          <mxGeometry relative="1" as="geometry" />
        </mxCell>
        <mxCell id="wmisGIE3uygCkkXU4CRx-88" value="" style="endArrow=block;dashed=1;endFill=0;endSize=12;html=1;rounded=0;exitX=0.054;exitY=0.754;exitDx=0;exitDy=0;exitPerimeter=0;entryX=1;entryY=0.781;entryDx=0;entryDy=0;entryPerimeter=0;" parent="1" source="wmisGIE3uygCkkXU4CRx-28" target="wmisGIE3uygCkkXU4CRx-26" edge="1">
          <mxGeometry width="160" relative="1" as="geometry">
            <mxPoint x="746" y="10" as="sourcePoint" />
            <mxPoint x="630" y="13" as="targetPoint" />
          </mxGeometry>
        </mxCell>
      </root>
    </mxGraphModel>
  </diagram>
</mxfile>
